<svg viewBox="0 0 287.364 111.362" xmlns="http://www.w3.org/2000/svg" xmlns:xlink="http://www.w3.org/1999/xlink" id="Layer_1" overflow="hidden"><defs></defs><path d="M163.82 30.4315 176.316 30.4315 176.316 44.5746C176.316 46.1458 176.092 48.4648 175.942 50.187L176.242 50.187C177.184 48.548 178.234 46.973 179.384 45.4723L191.731 30.4315 205.2 30.4315 188.738 50.2613 206.099 80.9408 191.731 80.9408 180.058 59.7651 176.316 64.3301 176.316 80.9408 163.82 80.9408Z" fill="#384745"/><path d="M218.297 65.0779C216.95 69.9413 219.718 73.0094 223.909 73.0094 228.623 73.0094 231.018 69.2677 231.018 63.9549 231.018 58.2682 228.174 56.099 224.358 56.099 222.059 56.082 219.84 56.9377 218.147 58.4936L212.76 52.6558 228.399 39.71 209.841 39.71 209.841 30.4315 240.895 30.4315 240.895 40.2337 228.923 50.1115C236.555 49.3637 243.814 54.3768 243.814 64.1048 243.814 74.656 235.208 81.8396 224.358 81.8396 214.107 81.8396 205.501 75.4794 207.746 66.5736Z" fill="#384745"/><path d="M259.304 64.3301C258.406 68.3701 259.977 73.0094 267.909 73.0094 273.147 73.0094 274.943 70.9144 274.943 68.1448 274.943 63.9549 270.752 62.9075 265.813 61.1122 258.406 58.5667 249.277 54.9761 249.277 44.4248 249.277 34.9965 256.535 29.2343 268.881 29.5339 283.997 29.8323 288.263 38.7381 286.616 46.4454L275.167 47.4929C275.916 41.6563 273.82 38.363 267.909 38.363 263.944 38.363 261.698 39.8611 261.698 43.0034 261.698 47.1932 265.739 48.4648 270.678 50.187 278.311 52.7301 287.364 55.7994 287.364 66.274 287.364 75.3284 280.63 81.8397 267.46 81.8397 255.113 81.8397 246.658 76.1517 248.379 65.3776Z" fill="#384745"/><path d="M121.587 0 14.3926 0C6.45344 0.0232417 0.0232863 6.45336 4.68445e-07 14.3925L0 96.9699C0.0232859 104.909 6.45344 111.339 14.3926 111.362L121.587 111.362C129.526 111.339 135.956 104.909 135.979 96.9699L135.979 14.3925C135.956 6.45336 129.526 0.0232421 121.587 3.59802e-07ZM57.4581 80.9807 31.2977 96.1834C27.9551 98.1259 23.6708 96.9909 21.7284 93.6483 19.7859 90.3058 20.9209 86.0214 24.2635 84.079L50.4239 68.8763C53.7649 66.9311 58.0501 68.0625 59.9953 71.4034 61.9405 74.7444 60.8091 79.0296 57.4681 80.9748 57.4648 80.9768 57.4615 80.9787 57.4581 80.9807ZM67.7496 57.8184 67.7182 57.8184C63.8524 57.8017 60.7322 54.6542 60.7489 50.7885 60.7489 50.7883 60.7489 50.7882 60.7489 50.788L60.8802 20.6507C60.8972 16.797 64.0257 13.6818 67.8795 13.6812L67.9109 13.6812C71.7768 13.6981 74.8971 16.8457 74.8802 20.7116L74.7489 50.8488C74.7319 54.7026 71.6034 57.8178 67.7496 57.8184ZM114.037 93.6285C112.106 96.9759 107.828 98.1243 104.48 96.1936 104.478 96.1926 104.477 96.1916 104.475 96.1906L78.2763 81.0647C74.9265 79.1349 73.7753 74.8548 75.7052 71.505 77.6351 68.1552 81.9151 67.0041 85.2649 68.934 85.2687 68.9361 85.2725 68.9383 85.2763 68.9405L111.475 84.0664C114.823 85.9991 115.97 90.2799 114.037 93.6278 114.037 93.6281 114.037 93.6283 114.037 93.6285Z" fill="#FFC61C"/></svg>